<svg id="Layer_1" xmlns="http://www.w3.org/2000/svg" x="0px" y="0px"
	 width="100%" viewBox="0 0 1024 1024">
<path fill="#F9FDFE" opacity="1.000000" stroke="none"
	d="
M568.617188,855.205688
	C543.491516,856.024597 526.606384,842.907227 512.742554,823.550537
	C508.631348,829.539490 504.553619,834.968872 499.465149,839.511536
	C487.706970,850.008606 474.128967,856.943054 458.206421,855.055969
	C432.646454,852.026855 408.302582,834.902222 401.105286,806.223267
	C399.401917,799.435852 396.740967,797.175598 390.015747,795.891174
	C357.793671,789.737244 332.094879,763.326843 325.592987,731.066223
	C323.805725,722.198425 323.157135,713.313965 323.641327,704.330261
	C323.779480,701.767212 322.848358,699.909912 321.245972,698.056580
	C311.044128,686.257324 303.615631,672.948608 300.959503,657.472412
	C295.716003,626.920349 304.161102,600.542847 326.192444,578.684875
	C328.645081,576.251526 329.881775,573.895752 329.691162,570.431152
	C327.665558,533.618408 353.791382,509.429413 379.763092,499.891968
	C386.466064,497.430450 389.822937,494.017853 392.369202,487.223755
	C401.394867,463.140869 419.860443,449.157562 444.487518,443.827789
	C470.286682,438.244354 492.871307,444.841675 511.045593,464.621857
	C511.590881,465.215332 512.249207,465.704987 512.672180,466.080750
	C514.184692,466.163269 514.764465,465.228699 515.374634,464.499084
	C535.039856,440.983978 568.593445,435.744690 596.900330,449.125519
	C615.833191,458.075134 629.295166,472.186218 635.399170,492.620026
	C636.235291,495.419128 637.782104,496.915283 640.642578,497.909576
	C656.789917,503.522430 671.274902,511.694275 681.860657,525.650940
	C691.302979,538.100098 696.845093,551.927246 696.240417,567.708374
	C696.045776,572.790222 697.552856,576.397888 701.124084,579.986633
	C718.434753,597.382263 726.628601,618.629700 726.278381,643.055237
	C726.017273,661.262451 720.271484,677.808044 708.546387,691.774292
	C703.549683,697.726135 702.129517,703.828186 702.195007,711.333984
	C702.386902,733.351868 696.187866,753.333435 681.216492,770.037659
	C668.571472,784.146179 653.028870,793.204285 634.262878,796.293640
	C629.517883,797.074768 627.104858,798.722168 625.772766,803.925598
	C618.530762,832.214050 599.982178,848.817871 571.496277,854.557068
	C570.680847,854.721375 569.878845,854.951843 568.617188,855.205688
M529.320312,537.500000
	C528.812256,570.650757 528.969727,603.807251 528.646423,636.960388
	C528.150940,687.751953 527.028931,738.578491 529.453003,789.359741
	C529.874756,798.194580 532.199768,806.742249 536.792603,814.500916
	C543.136597,825.217590 556.999084,832.400146 567.971863,830.472351
	C580.099182,828.341797 589.570618,821.883850 596.455933,811.854126
	C608.559937,794.222412 605.222046,772.161072 588.488037,756.934021
	C584.145081,752.982239 579.162598,749.988953 574.285522,746.799622
	C569.818848,743.878601 567.161438,739.683289 567.919128,734.161316
	C568.595520,729.232056 572.494690,725.776733 577.769653,724.901306
	C581.214966,724.329468 584.354980,725.564819 587.403320,726.915161
	C605.985474,735.146301 616.991516,750.133911 623.953064,768.519531
	C625.205750,771.828003 626.771667,773.037964 630.149658,772.528992
	C651.863770,769.256836 670.361816,752.521790 675.333740,731.172668
	C676.465027,726.314941 678.019409,721.359192 677.357727,716.206604
	C674.931641,715.911499 673.399170,717.102844 671.741028,717.752625
	C660.954651,721.980103 649.795227,724.341736 638.207275,724.512024
	C628.643982,724.652588 621.668518,718.514038 620.729187,709.020569
	C620.456787,706.267822 619.637756,703.842712 618.225342,701.545654
	C609.821533,687.877930 590.998413,679.515198 577.486267,683.172424
	C575.428467,683.729370 573.190308,683.960693 571.061646,683.848206
	C565.602783,683.559631 561.799988,680.107605 560.612549,674.741150
	C559.419617,669.349792 561.563049,664.002075 566.331665,661.589172
	C574.829590,657.289001 583.804565,656.953918 593.063538,658.609619
	C614.783264,662.493591 631.166870,673.677185 641.337524,693.460938
	C644.858948,700.310791 644.990479,700.502380 652.481934,698.569580
	C685.083374,690.158386 706.939941,666.078186 701.595947,630.775024
	C699.955139,619.935913 695.459167,610.277649 687.721375,601.607117
	C683.120728,609.177612 677.675415,615.263916 671.258911,620.354736
	C654.645203,633.535828 635.386292,637.195068 614.797729,635.129333
	C608.346375,634.482056 602.065491,632.608337 596.492249,629.013489
	C591.445435,625.757996 589.389832,620.212585 591.108215,614.693481
	C592.690491,609.611572 596.252502,607.545471 602.836365,607.602417
	C605.400269,607.624573 607.745483,608.395874 610.146423,609.037415
	C619.062622,611.419922 627.987671,612.667969 637.222900,610.655945
	C658.072388,606.113708 672.702209,588.254883 672.642090,566.945679
	C672.597412,551.122681 664.731934,539.486389 652.524048,530.344604
	C648.336487,527.208740 644.084045,524.059265 638.631409,522.686951
	C638.149353,524.095215 637.607849,525.149597 637.434265,526.261414
	C632.954285,554.946960 610.489197,567.874939 588.160767,569.888367
	C579.951660,570.628540 573.957214,566.015808 572.954346,558.735229
	C572.097778,552.516785 576.738464,547.375977 584.524841,545.523682
	C588.716797,544.526428 592.927368,543.393677 596.910828,541.781616
	C603.976562,538.922180 609.699036,534.516052 611.343994,526.466370
	C615.132629,507.925995 611.886414,491.527557 597.268982,478.232056
	C582.371033,464.681458 557.941467,461.985840 542.153625,472.617035
	C535.934265,476.805054 532.068298,482.328796 531.204407,490.145386
	C529.499634,505.569977 529.241760,521.020325 529.320312,537.500000
M324.269989,632.495544
	C322.176239,646.294739 324.162292,659.487976 331.669647,671.278137
	C342.188324,687.797485 358.550964,695.498779 377.024445,699.514648
	C380.142944,700.192566 382.062592,698.447021 383.446960,695.900940
	C384.877594,693.269653 386.131439,690.524963 387.752594,688.017273
	C399.700989,669.535583 417.043732,659.892761 438.639313,657.796753
	C446.831055,657.001648 455.053986,657.662048 461.698120,663.568298
	C465.893372,667.297607 467.078186,672.742249 465.019135,677.593262
	C462.828705,682.753784 458.545532,683.854919 453.518860,683.488647
	C451.859009,683.367798 450.179840,683.351807 448.544739,683.077576
	C433.053986,680.480286 420.945892,686.661682 410.850372,697.756531
	C407.704254,701.214172 405.647644,705.161499 405.127441,710.175598
	C404.233978,718.787842 396.850494,724.647583 388.217377,724.517395
	C382.386719,724.429443 376.650299,723.636841 370.906464,722.596680
	C363.050140,721.173950 355.690186,718.237488 348.364471,715.452759
	C347.983734,716.077942 347.663574,716.356812 347.670959,716.626587
	C348.416809,743.704956 366.970947,765.817688 393.441437,771.915527
	C398.743073,773.136902 401.040070,771.804871 402.684875,766.940430
	C405.485474,758.657654 410.051270,751.229187 415.651245,744.582275
	C422.922302,735.952026 431.359955,728.716797 442.486969,725.382263
	C450.310638,723.037781 457.093781,726.948364 458.187622,734.663330
	C459.060699,740.821655 455.315552,744.690247 450.620911,747.661621
	C444.689880,751.415527 439.047852,755.421570 434.204559,760.597900
	C416.383942,779.643616 418.986115,807.721924 440.117096,822.975708
	C458.943573,836.565796 481.456787,831.158325 491.194183,810.572632
	C494.637146,803.293884 496.586914,795.502197 496.615570,787.442383
	C496.742371,751.785156 497.045502,716.123230 496.639343,680.470398
	C495.926208,617.871460 498.745087,555.236755 494.720825,492.668396
	C494.166412,484.048828 490.863708,477.388397 483.580841,472.631195
	C476.977692,468.318024 469.806366,466.328705 461.948700,466.030457
	C431.353973,464.869110 408.283264,491.213409 413.449829,521.156555
	C415.399292,532.454773 421.608154,539.386414 432.326691,542.601074
	C435.340454,543.505005 438.492310,543.947693 441.507935,544.846558
	C445.451263,546.021790 449.537231,546.867554 451.546326,551.355286
	C456.174469,561.692993 448.969360,570.760254 436.798523,569.715271
	C413.065155,567.677551 395.272461,552.376953 389.353180,529.175842
	C388.811523,527.052795 389.505707,524.413208 387.092834,522.509521
	C376.303833,526.666199 367.337067,533.433105 360.819519,542.979797
	C351.146881,557.147949 350.427277,572.323608 358.451965,587.356140
	C366.754852,602.909790 380.733154,610.148132 397.906281,611.589478
	C405.544708,612.230591 412.579865,609.213928 419.782654,607.280518
	C426.522491,605.471313 432.020935,607.841980 434.417969,613.387817
	C436.916443,619.168396 434.916351,625.222839 429.062561,628.839478
	C426.818054,630.226257 424.345642,631.333252 421.852142,632.214111
	C394.946198,641.718994 360.756653,631.148132 343.399170,608.074097
	C341.937500,606.131104 340.900879,603.729248 337.926636,602.448975
	C330.499878,610.817261 325.750549,620.411621 324.269989,632.495544
z"/>
<path fill="#F9FDFE" opacity="1.000000" stroke="none"
	d="
M293.670837,326.872375
	C292.600098,312.402191 292.547638,298.365051 297.687347,285.086151
	C311.583099,249.184891 336.614471,226.171524 375.337952,219.597794
	C385.406891,217.888474 395.521759,218.109634 405.621826,219.506210
	C409.101746,219.987396 411.790283,219.510162 414.076416,216.029816
	C432.314880,188.263840 458.626740,172.552048 490.836761,166.889023
	C528.341431,160.295074 562.503845,168.467072 592.329468,192.706711
	C600.257324,199.149750 607.177856,206.620331 612.452209,215.413788
	C614.700562,219.162125 617.471741,219.901886 621.604248,219.422485
	C650.761047,216.040009 677.223999,222.519058 699.520386,242.262985
	C718.684692,259.233398 730.548645,280.478973 733.123474,306.111938
	C735.988708,334.635590 727.399048,359.191101 706.181335,379.143768
	C696.152954,388.574219 684.809021,395.552307 671.955627,400.073364
	C668.238892,401.380676 667.256409,403.254181 667.276978,406.938690
	C667.381042,425.599548 667.264709,444.261963 667.152527,462.923370
	C667.136597,465.571838 666.839172,468.234772 666.466614,470.861877
	C665.303101,479.067261 661.934326,481.796814 653.752991,481.323303
	C647.025879,480.933929 642.694580,476.269226 642.674561,469.088470
	C642.618347,448.926788 642.622559,428.764801 642.684265,408.603149
	C642.693176,405.705261 642.497192,403.544037 638.918762,402.765869
	C616.528870,397.896851 594.030823,393.467896 571.206543,391.522919
	C549.829834,389.701263 528.360962,389.102234 506.869659,389.309265
	C468.530823,389.678619 430.569183,393.088409 393.175110,401.875824
	C383.150299,404.231598 384.198578,401.999969 384.405243,412.938965
	C384.751709,431.275909 383.195190,449.560242 383.286530,467.887329
	C383.325378,475.685730 379.033295,480.404968 372.258972,480.840271
	C365.452026,481.277679 360.644928,477.266663 359.266846,469.863220
	C358.126892,463.739136 358.656891,457.539856 359.099426,451.424286
	C360.208008,436.105591 359.161621,420.773132 359.805206,405.464966
	C359.959686,401.790375 357.742340,401.109802 355.129150,400.201813
	C329.874969,391.427216 312.206879,374.171173 300.074615,350.773804
	C296.263702,343.424286 294.926483,335.385559 293.670837,326.872375
M334.481567,271.968079
	C312.174377,298.332458 313.091522,342.703247 344.528320,365.436432
	C357.413361,374.754150 371.689087,379.937225 387.607239,376.474945
	C418.643555,369.724213 449.954407,364.869873 481.666016,363.967926
	C510.749268,363.140778 539.881836,362.809998 568.961365,365.508698
	C589.148682,367.382141 609.120544,370.337433 628.945068,374.512970
	C637.200439,376.251801 645.404663,378.772247 654.036804,377.525299
	C686.383362,372.852600 712.225769,341.808594 706.935425,306.647827
	C700.483337,263.766815 656.966064,235.057037 615.695496,247.431000
	C604.810242,250.694672 602.444458,249.806946 596.987854,239.620529
	C589.845764,226.287918 580.333679,215.100204 567.440308,207.099304
	C547.894043,194.969986 526.715942,189.796417 503.642151,192.143234
	C487.807281,193.753784 473.034576,198.010727 459.623688,206.725357
	C445.992188,215.583374 436.278992,227.828583 428.557922,241.918930
	C424.417450,249.474930 421.251953,250.651672 412.992126,248.153854
	C406.447754,246.174759 399.810333,244.503220 392.989105,244.410065
	C369.354675,244.087311 350.088745,253.402939 334.481567,271.968079
z"/>
</svg>
