<svg id="Layer_1" xmlns="http://www.w3.org/2000/svg" x="0px" y="0px"
	 width="100%" viewBox="0 0 1024 1024">
<path fill="#ffff" opacity="1.000000" stroke="none"
	d="
M610.402588,197.623779
	C617.473267,205.691757 623.476685,214.082428 628.092896,223.380722
	C629.285095,225.782074 630.550659,226.138779 633.126221,225.842819
	C683.719543,220.029312 724.755615,248.364410 743.198669,283.830139
	C774.424377,343.876587 748.460938,414.669800 685.791138,440.140930
	C681.444275,441.907654 680.129395,444.083008 680.238770,448.577209
	C680.538635,460.900757 680.427734,473.237244 680.288391,485.566467
	C680.251343,488.842163 681.155701,491.107330 683.844360,493.206909
	C702.387329,507.687012 713.488831,526.640808 717.098450,549.894958
	C717.605835,553.163757 717.456970,556.539490 717.543457,559.867432
	C717.652283,564.057922 719.244202,565.816162 723.925720,565.793884
	C738.973999,565.722107 751.358154,571.675720 760.627991,583.702393
	C766.941833,591.894043 770.004456,601.331116 770.231812,611.526978
	C770.532776,625.017517 770.480896,638.522461 770.272522,652.016479
	C769.819824,681.325378 745.903687,699.359253 724.009216,698.313843
	C718.945618,698.072083 717.858521,700.133728 717.943115,704.721130
	C718.222717,719.884338 718.116455,735.109863 712.373901,749.478821
	C699.099304,782.694458 674.649170,801.666077 639.135803,806.487061
	C633.309875,807.277832 627.520630,807.294800 621.702148,807.296082
	C547.384094,807.312378 473.065979,807.327454 398.747894,807.285156
	C381.590668,807.275391 365.427216,803.350952 350.850525,794.027832
	C327.166565,778.879944 313.196381,757.531860 309.492950,729.463135
	C308.437347,721.462463 308.885040,713.506592 308.697357,705.530579
	C308.538635,698.783936 308.479919,698.650208 301.647583,698.414307
	C282.432404,697.750916 269.025299,688.216614 260.816437,671.174316
	C257.990967,665.308350 256.589294,658.973389 256.632446,652.348938
	C256.720428,638.852234 256.633331,625.354614 256.668793,611.857422
	C256.736389,586.117432 276.852539,565.773438 302.566772,565.774414
	C307.307495,565.774597 308.715424,564.452576 308.920929,559.646240
	C310.104584,531.965332 320.950867,509.127197 343.852539,492.744965
	C346.603607,490.777069 347.701477,488.632416 347.661987,485.285828
	C347.512604,472.623596 347.476959,459.956268 347.691376,447.295807
	C347.753265,443.640350 346.359161,442.109955 343.066040,440.822510
	C304.812592,425.867767 280.223145,398.660675 272.619873,358.093781
	C265.442932,319.801483 275.693481,285.870514 302.988281,257.675781
	C320.253418,239.841415 341.605225,229.597809 366.033112,225.885513
	C375.092041,224.508835 384.296906,224.845520 393.390381,225.959671
	C396.090088,226.290436 397.170013,225.488571 398.378571,223.273972
	C418.566681,186.281296 449.915161,165.428177 491.393341,159.582504
	C527.653320,154.472244 561.629761,160.319229 592.162231,181.579712
	C598.736572,186.157593 604.727722,191.455872 610.402588,197.623779
M577.499939,478.664185
	C599.498535,478.704437 621.498047,478.651276 643.494873,478.871490
	C647.435181,478.910919 648.770996,477.790375 648.721008,473.821350
	C648.544861,459.824249 648.654297,445.823547 648.659241,431.824188
	C648.663147,420.882538 651.864014,417.002136 662.570435,414.603943
	C704.002258,405.323517 730.700439,364.746460 723.336426,323.519562
	C714.915100,276.373291 670.386292,248.180740 624.075317,260.150238
	C621.369629,260.849548 618.737000,261.462921 615.751709,260.754211
	C608.706116,259.081543 606.157471,253.673264 603.876099,247.787292
	C594.646606,223.976028 577.918518,207.361282 554.571716,197.516815
	C537.402527,190.277222 519.466736,187.952484 500.840149,190.166107
	C482.026672,192.401947 465.040497,198.820679 450.070435,210.437180
	C436.991211,220.586411 427.561981,233.489838 421.475586,248.857162
	C416.951355,260.280273 411.930176,262.830017 400.259216,259.908142
	C395.921509,258.822174 391.494385,257.703735 387.060272,257.456573
	C360.333801,255.966827 338.256165,265.479645 320.918335,285.949371
	C295.273041,316.227173 296.235321,362.014496 323.224854,391.076324
	C334.397614,403.106995 347.840210,411.267578 364.006378,414.796692
	C375.424133,417.289154 378.339478,421.040588 378.345032,432.674225
	C378.351288,445.840271 378.343964,459.006317 378.351471,472.172363
	C378.355164,478.655365 378.364258,478.659485 385.008850,478.659698
	C448.839203,478.661835 512.669556,478.662415 577.499939,478.664185
M685.862854,695.500000
	C685.907104,658.344360 686.079102,621.188232 685.915771,584.033508
	C685.868286,573.242920 686.660034,562.394165 684.667053,551.650146
	C680.620972,529.837708 660.418640,511.428009 639.781921,511.399506
	C555.808105,511.283630 471.834137,511.290253 387.860229,511.313843
	C372.180237,511.318237 360.153076,518.676025 350.846802,530.796997
	C343.245453,540.697327 340.463684,552.349121 340.419525,564.523682
	C340.243042,613.175049 340.329102,661.827454 340.340729,710.479431
	C340.342010,715.793945 340.536621,721.067322 341.203186,726.390564
	C344.521759,752.893188 368.595581,774.630188 395.293640,774.646667
	C473.769958,774.695129 552.246338,774.687744 630.722656,774.662537
	C653.216309,774.655334 675.861328,757.545105 682.765137,736.113831
	C686.968872,723.064026 685.436035,709.746765 685.862854,695.500000
M308.499054,598.371033
	C307.898865,596.588379 306.408661,596.505310 304.868805,596.396484
	C296.630646,595.814453 288.503448,602.647522 288.333344,610.973633
	C288.048157,624.931091 288.029999,638.900635 288.256958,652.859253
	C288.388641,660.955322 295.478180,667.314941 303.537476,667.697205
	C307.492950,667.884827 308.748444,666.446411 308.720886,662.549988
	C308.571350,641.438416 308.629395,620.325500 308.499054,598.371033
M718.009583,600.845337
	C718.014221,621.284790 718.117859,641.725159 717.946106,662.163086
	C717.908508,666.627441 719.500122,668.054871 723.803711,667.655334
	C731.479858,666.942627 738.447205,660.346436 738.571350,652.651978
	C738.791077,639.028992 738.794434,625.397583 738.581787,611.774475
	C738.446716,603.120911 730.660767,596.124634 722.172363,596.324951
	C719.617981,596.385315 717.938538,597.047607 718.009583,600.845337
z"/>
<path fill="#fff" opacity="1.000000" stroke="none"
	d="
M613.474182,645.523193
	C593.978577,662.139771 563.362488,653.111206 558.064575,627.319031
	C553.998474,607.524292 569.395813,588.127991 589.612122,587.488953
	C605.470459,586.987671 617.388489,597.219788 621.623291,607.720703
	C626.978333,620.999451 624.262756,634.539246 613.474182,645.523193
z"/>
<path fill="#fff" opacity="1.000000" stroke="none"
	d="
M413.981781,646.081116
	C403.560211,636.257751 400.345703,624.503174 403.944153,611.249695
	C407.275696,598.979370 415.715210,591.200928 428.077850,588.413147
	C450.277466,583.407288 471.172455,600.237183 468.434204,624.042358
	C466.395813,641.763062 455.512299,652.574951 437.889160,653.932861
	C429.257385,654.597961 421.074341,652.138733 413.981781,646.081116
z"/>
</svg>
